{"title":"Everest (2015) 1080p BluRay Hindi DD 5.1Ch Eng BD 5.1Ch THEGABRU","uid":15748920,"size":4765972652,"categoryP":"video","categoryS":"movies","magnet":"?xt=urn:btih:e1a482e7b3512904222a3c98958b4b2b5af966e7&amp;dn=Everest+%282015%29+1080p+BluRay+Hindi+DD+5.1Ch+Eng+BD+5.1Ch+THEGABRU&amp;tr=udp%3A%2F%2Ftracker.leechers-paradise.org%3A6969&amp;tr=udp%3A%2F%2Fzer0day.ch%3A1337&amp;tr=udp%3A%2F%2Fopen.demonii.com%3A1337&amp;tr=udp%3A%2F%2Ftracker.coppersurfer.tk%3A6969&amp;tr=udp%3A%2F%2Fexodus.desync.com%3A6969","seeders":3,"leechers":5,"uploader":"THEGABRU","files":15,"time":1473006140,"description":"General\r\n\r\nComplete name               : Everest (2015)\r\nFormat                      : Matroska\r\nFormat version              : Version 4 / Version 2\r\nFile size                   : 4.37 GiB\r\nDuration                    : 2h 1mn\r\nOverall bit rate            : 5 160 Kbps\r\nMovie name                  : MANN KT\r\n\r\nVideo\r\nID                          : 1\r\nFormat                      : AVC\r\nFormat/Info                 : Advanced Video Codec\r\nDuration                    : 2h 1mn\r\nBit rate                    : 4 070 Kbps\r\nWidth                       : 1 920 pixels\r\nHeight                      : 808 pixels\r\nDisplay aspect ratio        : 2.40:1\r\nFrame rate mode             : Constant\r\nFrame rate                  : 23.976 fps\r\nColor space                 : YUV\r\nChroma subsampling          : 4:2:0\r\nBit depth                   : 8 bits\r\nScan type                   : Progressive\r\nBits/(Pixel*Frame)          : 0.109\r\nStream size                 : 3.36 GiB (77%)\r\nTitle                       : MANN KT\r\nLanguage                    : English\r\nDefault                     : Yes\r\nForced                      : No\r\n\r\nAudio #1\r\nID                          : 2\r\nFormat                      : AC-3\r\nFormat/Info                 : Audio Coding 3\r\nMode extension              : CM (complete main)\r\nFormat settings, Endianness : Big\r\nCodec ID                    : A_AC3\r\nDuration                    : 2h 1mn\r\nBit rate mode               : Constant\r\nBit rate                    : 640 Kbps\r\nChannel(s)                  : 6 channels\r\nChannel positions           : Front: L C R, Side: L R, LFE\r\nSampling rate               : 48.0 KHz\r\nCompression mode            : Lossy\r\nStream size                 : 555 MiB (12%)\r\nTitle                       : MANN KT\r\nLanguage                    : English\r\nDefault                     : No\r\nForced                      : No\r\n\r\nAudio #2\r\nID                          : 3\r\nFormat                      : AC-3\r\nFormat/Info                 : Audio Coding 3\r\nMode extension              : CM (complete main)\r\nFormat settings, Endianness : Big\r\nCodec ID                    : A_AC3\r\nDuration                    : 2h 1mn\r\nBit rate mode               : Constant\r\nBit rate                    : 448 Kbps\r\nChannel(s)                  : 6 channels\r\nChannel positions           : Front: L C R, Side: L R, LFE\r\nSampling rate               : 48.0 KHz\r\nCompression mode            : Lossy\r\nStream size                 : 388 MiB (9%)\r\nTitle                       : MANN KT\r\nLanguage                    : Hindi\r\nDefault                     : Yes\r\nForced                      : No","torrent":{"xt":"urn:btih:e1a482e7b3512904222a3c98958b4b2b5af966e7","amp;dn":"Everest+%282015%29+1080p+BluRay+Hindi+DD+5.1Ch+Eng+BD+5.1Ch+THEGABRU","amp;tr":["udp%3A%2F%2Ftracker.leechers-paradise.org%3A6969","udp%3A%2F%2Fzer0day.ch%3A1337","udp%3A%2F%2Fopen.demonii.com%3A1337","udp%3A%2F%2Ftracker.coppersurfer.tk%3A6969","udp%3A%2F%2Fexodus.desync.com%3A6969"],"infoHash":"e1a482e7b3512904222a3c98958b4b2b5af966e7","infoHashBuffer":{"type":"Buffer","data":[225,164,130,231,179,81,41,4,34,42,60,152,149,139,75,43,90,249,102,231]},"announce":[],"urlList":[]}}